<?xml version="1.0" encoding="UTF-8" standalone="no"?><!DOCTYPE svg PUBLIC "-//W3C//DTD SVG 1.1//EN" "http://www.w3.org/Graphics/SVG/1.1/DTD/svg11.dtd"><svg width="100%" height="100%" viewBox="0 0 800 601" version="1.1" xmlns="http://www.w3.org/2000/svg" xmlns:xlink="http://www.w3.org/1999/xlink" xml:space="preserve" xmlns:serif="http://www.serif.com/" style="fill-rule:evenodd;clip-rule:evenodd;stroke-linecap:round;stroke-linejoin:round;stroke-miterlimit:1.5;"><g id="Layer-1" serif:id="Layer 1"><path d="M692.59,127.272l-87.217,87.217l0,22.575" style="fill:none;"/></g><g><path d="M481.299,100.071l-139.695,0l-85.369,85.369l0,42.802l39.543,20.394l-188.478,189.955l-2.956,41.392l50.261,20.695l20.75,-17l-1.533,30.229l48.043,20.771l44.558,-48.782l4.644,-7.343l-7.811,41.342l38.365,19.218l60.749,-66.31l-2.288,29.828l34.739,18.743l212.869,-211.391l0.739,-36.217l87.217,-83.521l0,-65.044l-169.999,-64.304l-44.348,39.174Z" style="fill:#fff;stroke:#000;stroke-width:5px;"/><path d="M301.64,537.351l2.896,-41.209l98.515,-95.893l42.031,-11.626l-75.867,75.208l-67.575,73.52Z" style="fill:#ececec;"/><path d="M221.715,532.614l0.444,-40.977l110.051,-110.695l37.216,-3.45l-89.487,90.296l-58.224,64.826Z" style="fill:#ececec;"/><path d="M303.908,344.722l-121.217,122.695l-8.869,18.479" style="fill:none;stroke:#000;stroke-width:5px;"/><path d="M379.299,369.853l-107.912,107.912l-4.964,24.866" style="fill:none;stroke:#000;stroke-width:5px;"/><path d="M445.082,389.809l-82.783,82.782l-2.217,21.435" style="fill:none;stroke:#000;stroke-width:5px;"/><path d="M608.429,234.592l0,40.652" style="fill:none;stroke:#000;stroke-width:5px;"/><path d="M376.343,166.592l-87.217,88.326" style="fill:none;stroke:#000;stroke-width:5px;"/><path d="M394.203,519.632l212.328,-209.494l0.633,-35.105l-212.961,210.863l0,33.736Z" style="fill:#ececec;"/><path d="M154.838,498.949l6.825,-44.318l81.734,-78.194l43.924,-17.891l-104.42,107.348l-8.366,17.376l-19.697,15.679Z" style="fill:#ececec;"/><path d="M295.044,247.723l0,-47.625l67.764,-22.236l-67.764,69.861Z" style="fill:#ececec;"/><path d="M693.999,127.636l-83.593,82.335l-0.329,60.99l83.922,-80.576l0,-62.749Z" style="fill:#ececec;"/></g></svg>