<?xml version="1.0" encoding="UTF-8" standalone="no"?><!DOCTYPE svg PUBLIC "-//W3C//DTD SVG 1.1//EN" "http://www.w3.org/Graphics/SVG/1.1/DTD/svg11.dtd"><svg width="100%" height="100%" viewBox="0 0 800 601" version="1.1" xmlns="http://www.w3.org/2000/svg" xmlns:xlink="http://www.w3.org/1999/xlink" xml:space="preserve" xmlns:serif="http://www.serif.com/" style="fill-rule:evenodd;clip-rule:evenodd;stroke-linecap:round;stroke-linejoin:round;stroke-miterlimit:1.5;"><g><path d="M242.525,241.962c0,0 0.877,-42.863 1.036,-50.598c0.015,-0.763 0.329,-1.488 0.873,-2.022c9.352,-9.176 93.011,-91.256 102.267,-100.338c0.533,-0.523 1.247,-0.821 1.994,-0.834c12.329,-0.202 118.473,-1.942 118.473,-1.942c0,0 63.55,-65.267 71.708,-73.646c0.549,-0.564 1.302,-0.882 2.089,-0.882c9.041,0 65.089,0 74.051,0c0.773,0 1.515,0.308 2.062,0.854c10.209,10.21 108.699,108.7 118.909,118.91c0.546,0.546 0.854,1.288 0.854,2.062c0,9.212 0,68.253 0,77.465c0,0.774 -0.308,1.515 -0.854,2.062c-9.418,9.418 -93.552,93.551 -93.552,93.551c0,0 0,32.537 0,39.263c0,0.774 -0.307,1.515 -0.854,2.062c-12.662,12.662 -162.08,162.08 -177.649,177.65c-0.799,0.799 -1.988,1.064 -3.051,0.681c-15.357,-5.537 -127.078,-45.819 -127.078,-45.819l-107.869,107.869l-64.722,-17.652l0,-56.876l200.048,-190.242l-11.767,-15.69l-219.661,82.373l-66.683,-25.497l1.962,-64.721l317.723,-103.947l0,-43.147l0,43.147" style="fill:#fff;stroke:#000;stroke-width:7.04px;"/><path d="M424.126,386.823l2.615,4.503l-56.848,56.882l58.36,20.827l34.408,55.118l177.455,-177.843l-2.319,-38.498l-2.338,-43.11l4.657,-1.353l4.443,39.008l89.594,-91.413l-1.201,-77.295l-22.759,-22.728l-22.842,-22.732c-178.405,165.103 -307.694,291.422 -461.369,436.575l-0.894,60.679" style="fill:#eee;"/><path d="M424.126,389.982l-90.323,90.459" style="fill:none;stroke:#000;stroke-width:7px;"/><path d="M504.432,90.151l-37.264,-3.923" style="fill:none;stroke:#000;stroke-width:7px;"/><path d="M239.749,348.812l-2.048,55.14l23.07,14.58l100.029,-94.943l-11.336,-15.777l-109.715,41Z" style="fill:#fff;stroke:#000;stroke-width:7px;"/><path d="M366.616,448.208l60.125,22.84" style="fill:none;stroke:#000;stroke-width:7px;"/><path d="M637.797,264.702l4.638,41.902" style="fill:none;stroke:#000;stroke-width:7px;"/><path d="M336.694,480.441l29.922,-30.291l60.125,23.765l6.085,-8.445l30.015,58.983l-126.147,-44.012Z" style="fill:#eee;"/></g></svg>